<svg width="32" height="32" viewBox="0 0 32 32" xmlns="http://www.w3.org/2000/svg" xmlns:xlink="http://www.w3.org/1999/xlink"><title>ios</title><desc>Created with Sketch.</desc><defs><rect id="a" width="32" height="32" rx="7.5"/><linearGradient x1="50%" y1="0%" x2="50%" y2="100%" id="b"><stop stop-color="#004655" offset="0%"/><stop stop-color="#17858B" offset="12.38%"/><stop stop-color="#2ABDB9" offset="30.576%"/><stop stop-color="#DAC0AB" offset="81.784%"/><stop stop-color="#E9BCA5" offset="100%"/></linearGradient></defs><g fill="none"><g transform="translate(0 0)"><use fill="#fff" xlink:href="#a"/><rect stroke="#EBEDF0" x=".5" y=".5" width="31" height="31" rx="7.5"/></g><g fill="#030C1A" fill-rule="nonzero" stroke="url(#b)" stroke-width=".6"><path d="M7.202 11.045c0 .205-.127.357-.344.357-.181 0-.317-.152-.317-.357 0-.197.145-.357.335-.357.199 0 .326.161.326.357zm-.501 10.73v-8.208h.341v8.208h-.341zM18.382 15.927c0 4.138-2.328 6.019-4.876 6.019-2.603 0-4.711-2.035-4.711-5.848 0-3.916 2.181-6.019 4.894-6.019 2.658 0 4.693 2.069 4.693 5.848zm-9.241.085c0 3.138 1.541 5.575 4.382 5.575 2.86 0 4.501-2.513 4.501-5.611 0-2.873-1.314-5.495-4.314-5.495s-4.568 2.469-4.568 5.531zM19.634 20.886c.572.376 1.559.739 2.408.739 1.612 0 3.045-1.113 3.045-2.75 0-1.52-.955-2.313-2.576-2.994-1.451-.61-2.755-1.271-2.755-2.896 0-1.693 1.351-2.89 3.188-2.89.988 0 1.733.274 2.079.513l-.138.295c-.295-.205-1.091-.466-1.957-.466-1.941 0-2.787 1.447-2.787 2.513 0 1.472 1.156 1.964 2.646 2.665 1.733.838 2.651 1.576 2.651 3.184 0 1.727-1.247 3.129-3.465 3.129-.919 0-1.975-.308-2.495-.701l.155-.342z"/></g></g></svg>