<svg height="20" viewBox="0 0 24 20" width="24" xmlns="http://www.w3.org/2000/svg"><g fill="none"><path d="m0-2h24v24h-24z"/><path d="m6 18.106c0-3.783 4.5-3.027 4.5-4.54 0 0 .086-1.005-.41-1.513-.618-.63-1.09-1.388-1.09-2.648 0-1.881 1.343-3.405 3-3.405s3 1.524 3 3.405c0 1.243-.46 2.017-1.105 2.648-.471.496-.395 1.513-.395 1.513 0 1.513 4.5.757 4.5 4.54 0 0-1.195.894-6 .894zm-.514-4.139c-.569-.026-1.071-.065-1.512-.114-2.313-.253-2.974-.747-2.974-.747 0-3.783 4.5-3.027 4.5-4.54 0 0 .086-1.005-.41-1.513-.618-.63-1.09-1.388-1.09-2.648 0-1.881 1.343-3.405 3-3.405s3 1.524 3 3.405m8.514 9.562c.569-.026 1.071-.065 1.512-.114 2.313-.253 2.974-.747 2.974-.747 0-3.783-4.5-3.027-4.5-4.54 0 0-.086-1.005.41-1.513.618-.63 1.09-1.388 1.09-2.648 0-1.881-1.343-3.405-3-3.405s-3 1.524-3 3.405" stroke="#fff" stroke-width="1.5"/></g></svg>