<svg width="18" height="19" xmlns="http://www.w3.org/2000/svg"><g fill="none" fill-rule="evenodd"><path d="M-1-1h20v20H-1z"/><path stroke="#1D74F5" stroke-width="1.5" d="M12.243 14L9 17.243 5.757 14"/><path d="M9 16V8" stroke="#1D74F5" stroke-width="1.5" stroke-linecap="square"/><path d="M11.73 10h2.07c1.767 0 3.2-1.343 3.2-3s-1.433-3-3.2-3c0-1.243-1.075-2.25-2.4-2.25-.598 0-1.145.205-1.565.544C9.175 1.506 8.15 1 7 1 5.012 1 3.4 2.511 3.4 4.375c0 .394.072.773.205 1.125H3.4C2.075 5.5 1 6.507 1 7.75S2.075 10 3.4 10h2.86" stroke="#1D74F5" stroke-width="1.5"/></g></svg>