<?xml version="1.0" encoding="UTF-8"?>
<svg width="44px" height="44px" viewBox="0 0 44 44" version="1.1" xmlns="http://www.w3.org/2000/svg" xmlns:xlink="http://www.w3.org/1999/xlink">
    <!-- Generator: Sketch 49.3 (51167) - http://www.bohemiancoding.com/sketch -->
    <title>email</title>
    <desc>Created with Sketch.</desc>
    <defs></defs>
    <g id="✒️-blog" stroke="none" stroke-width="1" fill="none" fill-rule="evenodd">
        <g id="article" transform="translate(-892.000000, -3472.000000)">
            <g id="newsletter" transform="translate(448.000000, 3420.000000)">
                <g id="info" transform="translate(24.000000, 20.000000)">
                    <g id="email" transform="translate(420.000000, 32.000000)">
                        <path d="M2,0 L42,0 C43.1045695,-2.02906125e-16 44,0.8954305 44,2 L44,42 C44,43.1045695 43.1045695,44 42,44 L2,44 C0.8954305,44 1.3527075e-16,43.1045695 0,42 L0,2 C-1.3527075e-16,0.8954305 0.8954305,2.02906125e-16 2,0 Z" id="input-bg" fill="#6B7D99"></path>
                        <g id="20x20/mail--dark" transform="translate(12.000000, 12.000000)">
                            <g id="20x20/customize--grey">
                                <rect id="Rectangle" x="0" y="0" width="20" height="20"></rect>
                            </g>
                            <path d="M3,3.74989086 C2.30964406,3.74989086 1.75,4.30953492 1.75,4.99989086 L1.75,15 C1.75,15.6903559 2.30964406,16.25 2.99999991,16.25 L17,16.2499983 C17.6903555,16.2499983 18.2499994,15.6903549 18.25,14.9999991 L18.250012,4.99988914 C18.250012,4.3095332 17.690368,3.74988914 17.0000121,3.74988914 L3.00000009,3.74989086 Z" id="Rectangle-10" stroke="#FFFFFF" stroke-width="1.5"></path>
                            <polyline id="Rectangle-14" stroke="#FFFFFF" stroke-width="1.5" transform="translate(10.063708, 7.063708) rotate(-315.000000) translate(-10.063708, -7.063708) " points="14.3137085 2.8137085 12.8994949 9.89949494 5.8137085 11.3137085"></polyline>
                        </g>
                    </g>
                </g>
            </g>
        </g>
    </g>
</svg>