<?xml version="1.0" encoding="UTF-8"?>
<svg width="44px" height="44px" viewBox="0 0 44 44" version="1.1" xmlns="http://www.w3.org/2000/svg" xmlns:xlink="http://www.w3.org/1999/xlink">
    <!-- Generator: Sketch 49.3 (51167) - http://www.bohemiancoding.com/sketch -->
    <title>facebook</title>
    <desc>Created with Sketch.</desc>
    <defs></defs>
    <g id="✒️-blog" stroke="none" stroke-width="1" fill="none" fill-rule="evenodd">
        <g id="article" transform="translate(-532.000000, -3472.000000)">
            <g id="newsletter" transform="translate(448.000000, 3420.000000)">
                <g id="info" transform="translate(24.000000, 20.000000)">
                    <g id="facebook" transform="translate(60.000000, 32.000000)">
                        <path d="M2,0 L42,0 C43.1045695,-2.02906125e-16 44,0.8954305 44,2 L44,42 C44,43.1045695 43.1045695,44 42,44 L2,44 C0.8954305,44 1.3527075e-16,43.1045695 0,42 L0,2 C-1.3527075e-16,0.8954305 0.8954305,2.02906125e-16 2,0 Z" id="input-bg" fill="#3B5998"></path>
                        <path d="M16,22.5 L18.4430805,22.5 L18.4430805,34 L23.3046883,34 L23.3046883,22.5 L26.5703117,22.5 L27,18.5348951 L23.3292403,18.5348951 L23.3292403,16.5583333 C23.3292403,16.2548591 23.3435623,16.021268 23.3722094,15.8575509 C23.4008566,15.6938369 23.4663317,15.5341157 23.568638,15.3783843 C23.6709443,15.2226559 23.8325877,15.1148441 24.0535714,15.0549491 C24.2745551,14.9950509 24.5691949,14.9651049 24.9375,14.9651049 L26.975448,14.9651049 L26.975448,11 L23.7220974,11 C21.8396486,11 20.4892163,11.4352397 19.6707597,12.3057284 C18.8523025,13.1762201 18.4430805,14.4579764 18.4430805,16.1510432 L18.4430805,18.5348951 L16,18.5348951 L16,22.5 Z" id="facebook--icon--white" fill="#FFFFFF"></path>
                    </g>
                </g>
            </g>
        </g>
    </g>
</svg>