<?xml version="1.0" encoding="UTF-8"?>
<svg width="24px" height="24px" viewBox="0 0 24 24" version="1.1" xmlns="http://www.w3.org/2000/svg" xmlns:xlink="http://www.w3.org/1999/xlink">
    <!-- Generator: Sketch 49.3 (51167) - http://www.bohemiancoding.com/sketch -->
    <title>question</title>
    <desc>Created with Sketch.</desc>
    <defs></defs>
    <g id="☁️-cloud" stroke="none" stroke-width="1" fill="none" fill-rule="evenodd">
        <g id="cloud" transform="translate(-280.000000, -3034.000000)">
            <g id="faqs" transform="translate(256.000000, 2786.000000)">
                <g id="questions-left" transform="translate(0.000000, 224.000000)">
                    <g id="question-open">
                        <g id="question" transform="translate(24.000000, 24.000000)">
                            <rect id="Rectangle" x="0" y="0" width="24" height="24"></rect>
                            <circle id="Oval" fill="#A3B4CC" cx="12" cy="12" r="12"></circle>
                            <path d="M9.046875,9.71289062 C9.12207031,8.23632812 10.1064453,7.06054688 12.0273438,7.06054688 C13.75,7.06054688 14.9257812,8.12695312 14.9257812,9.53515625 C14.9257812,10.6083984 14.3720703,11.3671875 13.4970703,11.8935547 C12.6289062,12.40625 12.3828125,12.7890625 12.3828125,13.5068359 L12.3828125,13.9511719 L11.1865234,13.9511719 L11.1865234,13.3222656 C11.1796875,12.4199219 11.6171875,11.8046875 12.5537109,11.2441406 C13.3466797,10.7587891 13.6542969,10.328125 13.6542969,9.59667969 C13.6542969,8.74902344 12.9980469,8.12695312 11.9794922,8.12695312 C10.9472656,8.12695312 10.2910156,8.73535156 10.2158203,9.71289062 L9.046875,9.71289062 Z M11.8769531,17.1230469 C11.3232422,17.1230469 10.9267578,16.7265625 10.9267578,16.1728516 C10.9267578,15.6123047 11.3232422,15.2158203 11.8769531,15.2158203 C12.4306641,15.2158203 12.8203125,15.6123047 12.8203125,16.1728516 C12.8203125,16.7265625 12.4306641,17.1230469 11.8769531,17.1230469 Z" id="?" stroke="#FFFFFF" stroke-width="0.2" fill="#FFFFFF"></path>
                        </g>
                    </g>
                </g>
            </g>
        </g>
    </g>
</svg>