<svg width="153" height="48" viewBox="0 0 153 48" xmlns="http://www.w3.org/2000/svg" xmlns:xlink="http://www.w3.org/1999/xlink"><title>google-play</title><desc>Created with Sketch.</desc><defs><rect id="a" x=".039" y=".039" width="148.609" height="43.611" rx="4"/><linearGradient x1="91.5%" y1="38.184%" x2="-38.3%" y2="55.719%" id="b"><stop stop-color="#00A0FF" offset="0%"/><stop stop-color="#00A1FF" offset="1%"/><stop stop-color="#00BEFF" offset="26%"/><stop stop-color="#00D2FF" offset="51%"/><stop stop-color="#00DFFF" offset="76%"/><stop stop-color="#00E3FF" offset="100%"/></linearGradient><linearGradient x1="108%" y1="50%" x2="-130%" y2="50%" id="c"><stop stop-color="#FFE000" offset="0%"/><stop stop-color="#FFBD00" offset="41%"/><stop stop-color="#FFA500" offset="78%"/><stop stop-color="#FF9C00" offset="100%"/></linearGradient><linearGradient x1="72.008%" y1="17.9%" x2="-10.917%" y2="195%" id="d"><stop stop-color="#FF3A44" offset="0%"/><stop stop-color="#C31162" offset="100%"/></linearGradient><linearGradient x1="8.498%" y1="-54.2%" x2="45.234%" y2="24.9%" id="e"><stop stop-color="#32A071" offset="0%"/><stop stop-color="#2DA771" offset="7%"/><stop stop-color="#15CF74" offset="48%"/><stop stop-color="#06E775" offset="80%"/><stop stop-color="#00F076" offset="100%"/></linearGradient></defs><g fill-rule="nonzero" fill="none"><g transform="translate(2 2)"><use fill="#000" fill-rule="evenodd" xlink:href="#a"/><rect stroke="#384A66" stroke-width="1.5" x="-.711" y="-.711" width="150.109" height="45.111" rx="4"/></g><path d="M54.013 13.253c.391.818 0 1.596-.782 2.219-.391.623-1.564.973-2.346.935-1.955 0-3.52-1.519-3.52-3.427 0-1.869 1.564-3.427 3.52-3.427.391 0 1.173.117 1.564.273.391.195.782.428.782.74l-.391.584c-.391-.506-1.173-.818-1.955-.779-1.173 0-2.346.818-2.346 1.947-.391 1.129 0 2.336 1.173 2.92.782.623 2.346.467 3.129-.35.391-.35.391-.857.391-1.324h-2.346v-.779h3.129v.467zM59.097 10.527h-2.738v2.064h2.738v.779h-2.738v2.103h2.738v.779h-3.52v-6.542h3.52zM63.008 16.29h-1.173v-5.763h-1.564v-.818h4.302v.818h-1.564zM68.092 16.29v-6.581h.782v6.581zM72.394 16.29h-.782v-5.763h-1.564v-.818h4.302v.818h-1.955zM82.953 15.434c-1.173 1.324-3.52 1.324-4.693 0-1.564-1.363-1.564-3.504 0-4.867.391-.662 1.564-1.012 2.346-1.012s1.564.35 2.346 1.012c1.173 1.363 1.173 3.504 0 4.867zm-4.302-.545c1.173.973 2.738.973 3.52 0 1.173-1.09 1.173-2.726 0-3.777-.782-.973-2.346-.973-3.52 0-.782 1.051-.782 2.687 0 3.777zM85.299 16.29v-6.581h.782l3.129 5.101h.391l-.391-1.246v-3.855h1.173v6.581h-1.173l-3.129-5.373v5.373z" id="Shape" stroke="#fff" stroke-width=".55" fill="#fff"/><path d="M77.087 25.869c-2.738 0-4.693 2.064-4.693 4.556 0 2.726 1.955 4.673 4.693 4.673 2.346 0 4.693-1.947 4.693-4.673 0-1.129-.391-2.336-1.564-3.232-.782-.857-1.955-1.363-3.129-1.324zm0 7.281c-1.173.389-2.346-.389-2.738-1.558-.782-.779-.391-2.142.391-2.998.782-.857 1.955-1.129 3.129-.701 1.173.428 1.564 1.441 1.564 2.531.391.779 0 1.558-.391 1.947-.782.779-1.173.779-1.955.779zm-10.168-7.281c-2.738 0-4.693 2.064-4.693 4.556 0 2.726 1.955 4.673 4.693 4.673 2.346 0 4.693-1.947 4.693-4.673 0-1.129-.782-2.336-1.564-3.232-.782-.857-1.955-1.363-3.129-1.324zm0 7.281c-1.173.389-2.346-.389-3.129-1.558-.391-.779 0-2.142.782-2.998.782-.857 1.955-1.129 3.129-.701.782.428 1.564 1.441 1.564 2.531 0 .779 0 1.558-.782 1.947-.391.779-1.173.779-1.564.779zm-12.514-5.88v1.986h4.693c0 .779-.391 1.947-.782 2.336-1.173 1.168-2.346 1.558-3.911 1.558-2.738 0-5.084-2.336-5.084-5.218 0-2.881 2.346-5.257 5.084-5.257 1.564 0 2.738.506 3.911 1.402l1.173-1.363c-1.173-1.324-3.129-2.025-5.084-2.025-3.911 0-7.039 3.232-7.039 7.242 0 4.05 3.129 7.165 7.039 7.165 2.346 0 3.911-.779 5.084-1.947 1.564-1.168 1.955-3.154 1.955-4.634 0-.428 0-.818-.391-1.246h-6.648zm50.058 1.558c-.391-1.051-1.564-2.959-3.911-2.959-2.738 0-4.693 1.869-4.693 4.556 0 1.168.391 2.726 1.564 3.504.782.779 1.955 1.168 3.129 1.168 1.564 0 3.129-.779 3.911-1.947l-1.564-1.168c-.391.779-1.173 1.558-2.346 1.558-.782 0-1.955-.779-2.346-1.558l6.257-2.609v-.545zm-6.648 1.596c0-.74.391-1.402.782-1.908.391-.545 1.173-.818 1.955-.857.782-.039 1.173.35 1.564.973l-4.302 1.791zm-5.084 4.283h2.346v-13.473h-2.346v13.473zm-3.129-7.788c-.782-.701-1.564-1.09-2.738-1.051-2.346 0-4.302 2.025-4.302 4.556 0 2.726 1.955 4.673 4.302 4.673 1.173 0 1.955-.389 2.738-1.168v.779c0 1.947-1.173 2.726-2.738 2.726-.782 0-1.955-.779-2.346-1.558l-1.564.779c.782 1.558 2.346 2.726 3.911 2.726 2.738 0 4.693-1.558 4.693-5.062v-8.177h-1.955v.779zm-2.346 6.23c-1.564 0-2.738-1.168-2.738-2.726 0-1.519 1.173-2.726 2.738-2.726 1.173 0 2.346 1.207 2.346 2.726 0 1.947-1.173 2.726-2.346 2.726zm26.593-11.915h-4.693v13.473h1.955v-4.984h2.738c2.346 0 4.693-1.674 4.693-4.283 0-2.609-2.346-4.205-4.693-4.205zm0 6.581h-2.738v-4.673h2.738c1.564 0 2.346 1.051 2.346 2.336s-.782 2.336-2.346 2.336zm12.906-1.947c-1.564 0-3.129.662-3.52 2.103l1.564.74c.391-.662 1.173-1.051 1.955-1.012 1.173 0 1.955.662 2.346 1.791v.117c-.782-.35-1.564-.545-2.346-.506-1.955 0-3.911.935-3.911 2.881 0 1.947 1.564 3.115 3.52 3.115.782 0 1.955-.389 2.346-1.168h.391v.779h1.955v-5.101c0-2.414-1.955-3.777-4.302-3.777v.039zm-.391 7.671c-.391 0-1.564-.389-1.564-1.168 0-1.168 1.173-1.558 2.346-1.558.391 0 1.173 0 1.955.389-.391 1.168-1.564 1.947-2.738 1.947v.389zm11.732-7.398l-2.346 5.841-2.346-5.841h-2.346l3.52 8.177-1.955 4.673h1.955l5.866-12.85h-2.346zm-18.381 8.956h1.955v-13.862h-1.955v13.862z" id="Shape" fill="#fff"/><path d="M13.498 10.333c-.352.428-.508.973-.469 1.558v24.375c-.039.389.117.779.469 1.558h.117l13.609-13.667v-.312l-13.609-13.628-.117.117z" id="Shape" fill="url(#b)"/><path d="M31.722 28.634l-4.497-4.517v-.35l4.497-4.478v.039l5.475 3.037c1.564.896 1.564 2.297 0 3.154l-5.475 3.076v.039z" id="Shape" fill="url(#c)"/><path d="M31.722 28.556l-4.497-4.595-13.688 13.473c.508.779 1.33.779 2.268.389l15.917-9.267" id="Shape" fill="url(#d)"/><path d="M31.722 19.327l-15.917-9.112c-.939-.506-1.76-.467-2.268.078l13.688 13.628 4.497-4.595z" id="Shape" fill="url(#e)"/><path d="M31.722 28.478l-15.917 8.956c-.899.389-1.682.389-2.19 0h-.078l.078.389c.508.389 1.291.389 2.19 0l15.917-9.267v-.078z" id="Shape" fill="#000" opacity=".2"/><path d="M13.498 37.434c-.352-.389-.508-1.168-.469-1.558-.039.779.117 1.168.469 1.558h.117-.117zM37.197 25.363l-5.475 3.115v.117l5.475-3.076c.782-.428 1.173-1.012 1.173-1.558 0 .623-.391 1.129-1.173 1.402z" id="Shape" fill="#000" opacity=".12"/><path d="M15.805 10.411l21.392 12.11c.782.273 1.173.779 1.173 1.441 0-.584-.391-1.168-1.173-1.596l-21.392-12.149c-1.525-.857-2.777-.117-2.777 1.635v.156c0-1.752 1.251-2.453 2.777-1.596z" fill="#fff" opacity=".25"/></g></svg>