<svg width="150" height="48" viewBox="0 0 150 48" xmlns="http://www.w3.org/2000/svg" xmlns:xlink="http://www.w3.org/1999/xlink"><title>itunes-store</title><desc>Created with Sketch.</desc><defs><path d="M142.612 45.01h-137.127c-2.622 0-4.509-1.87-4.509-4.18v-35.66c0-2.299 1.887-4.191 4.213-4.191h137.127c2.194 0 4.388 1.892 4.388 4.213v35.66c.296 2.288-1.898 4.158-4.092 4.158z" id="a"/></defs><g fill-rule="nonzero" fill="none"><g id="Shape" transform="translate(1 1)"><use fill="#000" fill-rule="evenodd" xlink:href="#a"/><path stroke="#384A66" stroke-width="1.5" d="M142.612 45.76h-137.127c-2.982 0-5.259-2.154-5.259-4.93v-35.66c0-2.719 2.228-4.941 4.963-4.941h137.127c2.673 0 5.138 2.286 5.138 4.963l-.006 35.564c.345 2.665-2.095 5.004-4.836 5.004z"/></g><g id="Shape" fill="#fff"><path d="M34.02 23.78c0-3.52 2.962-5.291 3.072-5.368-1.646-2.42-4.278-2.75-5.156-2.783-2.194-.231-4.278 1.298-5.375 1.298-1.097 0-2.775-1.276-4.596-1.232-2.348.033-4.542 1.397-5.748 3.509-2.49 4.356-.636 10.626 1.744 14.19 1.196 1.76 2.589 3.63 4.41 3.52 1.777 0 2.446-1.1 4.629-1.1 2.084 0 2.743 1.1 4.607 1.1 1.865 0 3.072-1.76 4.278-3.41 1.316-1.98 1.865-3.96 1.865-4.07 0 0-3.62-1.43-3.73-5.61v-.044zM30.51 13.341c.987-1.21 1.646-2.838 1.426-4.499-1.316.058-3.072.957-4.059 2.134-.878 1.034-1.646 2.739-1.536 4.334 1.646.11 3.181-.792 4.169-1.969z"/></g><g id="Shape" fill="#fff"><path d="M59.8 36.65h-2.446l-1.36-4.29h-4.739l-1.305 4.29h-2.424l4.695-14.63 2.907-.004 4.673 14.63v.004zm-4.213-6.094l-1.24-3.828c-.132-.396-.373-1.309-.735-2.761h-.044c-.143.627-.373 1.551-.691 2.761l-1.218 3.828h3.927zM71.977 31.249c0 1.771-.549 3.201-1.536 4.301-.878.88-1.865 1.32-3.181 1.32-1.426 0-2.413-.44-2.962-1.43h-.11v5.5h-2.304v-11.33c0-1.166 0-2.321-.11-3.509h2.084l.11 1.672h.11c.768-1.265 1.865-1.892 3.51-1.892 1.207 0 2.304.495 3.072 1.474.878.99 1.316 2.288 1.316 3.894zm-2.413.088c0-1.034-.219-1.881-.658-2.541-.549-.704-1.207-1.045-2.084-1.045-.549 0-1.097.187-1.536.572-.549.385-.768.891-.987 1.507 0 .297-.11.528-.11.715v1.76c0 .825.219 1.375.768 1.925.439.55 1.097.77 1.755.77.878 0 1.646-.33 2.084-.99.549-.66.768-1.562.768-2.673zM84.044 31.249c0 1.771-.439 3.201-1.426 4.301-.878.88-1.975 1.32-3.291 1.32-1.316 0-2.304-.44-2.962-1.43v5.5h-2.413v-14.839h1.975l.219 1.672c.768-1.265 1.975-1.892 3.51-1.892 1.316 0 2.304.495 3.181 1.474.768.99 1.207 2.288 1.207 3.894zm-2.413.088c0-1.034-.219-1.881-.658-2.541-.549-.704-1.207-1.045-2.084-1.045-.549 0-1.097.187-1.536.572-.439.385-.768.891-.878 1.507-.11.297-.11.528-.11.715v1.76c0 .825.219 1.375.658 1.925.439.55 1.097.77 1.865.77.878 0 1.536-.33 2.084-.99.439-.66.658-1.562.658-2.673zM97.538 32.547c0 1.243-.439 2.233-1.207 3.003-.987.88-2.304 1.32-4.059 1.32-1.536 0-2.743-.33-3.73-.88l.549-1.98c.987.66 2.084.88 3.401.88.878 0 1.536-.11 1.975-.55.549-.44.768-.88.768-1.595 0-.594-.219-1.1-.549-1.507-.439-.407-1.097-.781-2.084-1.133-2.523-.957-3.84-2.354-3.84-4.191 0-1.21.439-2.189 1.316-2.959.987-.77 2.084-1.155 3.62-1.155 1.316.001 2.413.233 3.291.696l-.549 1.914c-.878-.451-1.755-.671-2.852-.671-.768 0-1.426.198-1.865.605-.439.363-.549.803-.549 1.331 0 .572.219 1.056.658 1.43.329.352 1.097.726 2.084 1.133 1.207.506 2.194 1.1 2.743 1.771.658.682.878 1.529.878 2.541v-.003zM105.326 27.861h-2.633v5.159c0 1.32.549 1.87 1.426 1.87.439 0 .768 0 .987-.11l.11 1.87c-.439.11-1.097.22-1.865.22-.878 0-1.646-.33-2.084-.88-.549-.55-.878-1.43-.878-2.86v-5.269h-1.536v-1.76h1.536v-1.936l2.304-.693v2.629h2.633v1.76zM116.955 31.293c0 1.617-.439 2.937-1.426 4.037-.987.99-2.194 1.54-3.84 1.54-1.536 0-2.743-.44-3.73-1.54-.878-.99-1.316-2.31-1.316-3.861 0-1.639.439-2.981 1.426-4.026.878-1.034 2.194-1.562 3.84-1.562 1.536 0 2.743.517 3.73 1.54.878 1.001 1.316 2.288 1.316 3.872zm-2.413.077c0-.979-.219-1.815-.658-2.508-.439-.847-1.207-1.265-2.084-1.265-.987 0-1.646.418-2.194 1.265-.329.693-.549 1.54-.549 2.552 0 .968.219 1.826.549 2.486.549.88 1.207 1.32 2.194 1.32.878 0 1.536-.44 2.084-1.32.439-.77.658-1.562.658-2.53zM124.524 28.158c-.219-.044-.439-.066-.768-.066-.768 0-1.426.319-1.865.935-.329.55-.549 1.254-.549 2.09v5.533h-2.413l.11-7.227c0-1.221-.11-2.321-.11-3.322h1.975l.11 2.013h.11c.219-.693.658-1.243 1.097-1.672.549-.374 1.097-.561 1.755-.561.219 0 .439.011.549.044v2.233zM135.056 30.875c0 .418-.11.781-.11 1.067h-7.021c0 1.078.329 1.848.987 2.398.549.44 1.316.77 2.304.77.987 0 1.975-.22 2.852-.55l.329 1.65c-.987.44-2.194.66-3.51.66-1.646 0-2.852-.55-3.84-1.43-.878-.99-1.426-2.31-1.426-3.916 0-1.584.439-2.915 1.316-3.971.878-1.122 2.194-1.694 3.73-1.694s2.633.572 3.401 1.694c.658.902.987 2.013.987 3.322zm-2.304-.605c0-.693-.11-1.298-.439-1.804-.439-.649-.987-.979-1.865-.979-.768 0-1.426.319-1.865.957-.329.506-.658 1.111-.658 1.826h4.827z"/></g><g fill="#fff"><path d="M54.809 13.011c0 1.298-.384 2.266-1.163 2.926-.713.605-1.733.902-3.05.902-.658 0-1.218-.033-1.678-.088l-.004-7.073c.608-.097 1.262-.147 1.975-.147 1.262 0 2.205.279 2.841.818.713.627 1.075 1.507 1.075 2.662h.004zm-1.218.033c0-.836-.219-1.485-.658-1.936-.439-.44-1.097-.671-1.942-.671-.362 0-.669.022-.932.077v5.379c.143.022.406.033.779.033.878 0 1.558-.253 2.04-.737.472-.495.713-1.21.713-2.145zM61.226 14.144c0 .792-.219 1.452-.658 1.958-.439.528-1.097.792-1.909.792-.757 0-1.36-.253-1.81-.759-.45-.506-.68-1.144-.68-1.903 0-.814.23-1.463.702-1.98.461-.506 1.086-.77 1.876-.77.724 0 1.382.253 1.821.759.439.495.658 1.122.658 1.903zm-1.207.033c0-.473-.11-.891-.329-1.232-.219-.407-.549-.616-.987-.616-.461 0-.812.209-1.053.616-.208.341-.307.759-.307 1.254 0 .473.099.891.307 1.232.252.407.592.616 1.042.616.439 0 .779-.209.998-.627.219-.352.329-.759.329-1.243zM69.893 11.592l-1.646 5.181h-1.097l-.658-2.244-.439-1.683c-.11.572-.219 1.133-.439 1.683l-.658 2.244h-1.097l-1.536-5.181h1.207l.549 2.464c.219.583.329 1.144.439 1.661.11-.429.219-.979.439-1.65l.658-2.475h.987l.658 2.42c.219.594.329 1.166.439 1.705.11-.528.219-1.1.439-1.705l.549-2.42h1.207zM75.817 16.773h-1.097v-2.97c0-.913-.439-1.375-1.097-1.375-.329 0-.658.132-.878.385-.219.253-.219.55-.219.891v3.069h-1.207v-5.181h.987v.803h.11c.11-.253.329-.451.549-.627.329-.187.658-.286 1.097-.286.439 0 .878.154 1.207.473.329.385.549.957.549 1.716v3.102zM78.998 16.773h-1.207v-7.561h1.207zM85.8 14.144c0 .792-.219 1.452-.768 1.958-.439.528-1.097.792-1.865.792s-1.316-.253-1.755-.759c-.549-.506-.768-1.144-.768-1.903 0-.814.329-1.463.768-1.98.439-.506 1.097-.77 1.865-.77s1.316.253 1.865.759c.439.495.658 1.122.658 1.903zm-1.207.033c0-.473-.11-.891-.329-1.232-.219-.407-.549-.616-.987-.616-.549 0-.878.209-1.097.616-.219.341-.329.759-.329 1.254 0 .473.11.891.329 1.232.219.407.549.616.987.616.439 0 .878-.209 1.097-.627.219-.352.329-.759.329-1.243zM91.285 16.773h-.987l-.11-.594c-.329.473-.878.715-1.536.715-.439 0-.878-.154-1.207-.473-.219-.275-.329-.638-.329-1.056 0-.627.219-1.111.768-1.452.549-.33 1.207-.495 2.194-.484v-.099c0-.682-.329-1.023-1.097-1.023-.439 0-.878.132-1.316.385l-.219-.759c.439-.297 1.097-.451 1.755-.451 1.316 0 2.084.715 2.084 2.145v3.146zm-1.207-1.782v-.792c-1.207-.022-1.865.319-1.865 1.045 0 .264.11.473.219.605.11.132.329.198.549.198.329 0 .549-.077.768-.231.219-.165.329-.374.329-.616v-.209zM97.867 16.773h-.987l-.11-.825c-.329.627-.878.946-1.646.946-.658 0-1.207-.242-1.646-.737-.329-.495-.549-1.122-.549-1.903 0-.847.219-1.529.658-2.046.439-.484.987-.726 1.646-.726.658 0 1.097.242 1.426.704v-2.97l1.097-.004v6.16c0 .506.11.968.11 1.397v.004zm-1.207-2.189v-1.221c-.11-.275-.219-.517-.439-.704-.219-.187-.439-.275-.768-.275-.439 0-.768.165-.987.506-.329.341-.439.781-.439 1.32 0 .506.11.924.439 1.243.219.341.549.517.987.517.329 0 .658-.143.878-.429.219-.264.329-.583.329-.957zM107.63 14.144c0 .792-.219 1.452-.658 1.958-.439.528-1.097.792-1.865.792s-1.316-.253-1.865-.759c-.439-.506-.658-1.144-.658-1.903 0-.814.219-1.463.768-1.98.439-.506 1.097-.77 1.865-.77s1.316.253 1.755.759c.439.495.658 1.122.658 1.903zm-1.097.033c0-.473-.11-.891-.329-1.232-.219-.407-.658-.616-1.097-.616-.439 0-.768.209-.987.616-.219.341-.329.759-.329 1.254 0 .473.11.891.329 1.232.219.407.549.616.987.616.439 0 .768-.209 1.097-.627.219-.352.329-.759.329-1.243zM113.883 16.773h-1.207v-2.97c0-.913-.329-1.375-.987-1.375-.329 0-.658.132-.878.385-.219.253-.329.55-.329.891v3.069h-1.097v-5.181h.987v.803h.11c.11-.253.329-.451.549-.627.329-.187.658-.286.987-.286.549 0 .878.154 1.207.473.439.385.658.957.658 1.716v3.102zM121.562 12.45h-1.207v2.519c0 .649.219.968.658.968.219 0 .329-.022.549-.055v.869c-.219.088-.549.132-.878.132-.439 0-.878-.143-1.097-.418-.219-.275-.329-.737-.329-1.397v-2.618h-.768v-.858h.768v-.946l1.097-.352v1.298h1.207v.858zM127.706 16.773h-1.207v-2.948c0-.924-.329-1.397-.987-1.397-.549 0-.878.275-1.097.814 0 .11-.11.253-.11.418v3.113h-1.097v-7.557l1.097-.004v3.124h.11c.329-.572.878-.858 1.536-.858.439 0 .878.154 1.207.473.329.385.549.968.549 1.738v3.084zM133.959 13.935v.528h-3.51c0 .506.219.902.549 1.177.219.242.658.352 1.097.352.549 0 .987-.077 1.426-.242l.11.803c-.439.209-.987.319-1.646.319-.878 0-1.426-.231-1.975-.704-.439-.473-.658-1.111-.658-1.914 0-.781.219-1.43.658-1.947.439-.55 1.097-.836 1.755-.836.768 0 1.316.286 1.755.836.329.44.439.979.439 1.628zm-1.097-.297c0-.341-.11-.638-.219-.88-.219-.319-.549-.484-.878-.484-.439 0-.768.154-.987.473-.11.242-.219.539-.329.891h2.413z"/></g></g></svg>