<svg width="43" height="40" viewBox="0 0 43 40" xmlns="http://www.w3.org/2000/svg"><title>finder</title><desc>Created with Sketch.</desc><defs><linearGradient x1="50%" y1="0%" x2="50%" y2="100%"><stop stop-color="#28D5F9" offset="0%"/><stop stop-color="#1872F3" offset="100%"/></linearGradient></defs><g fill="none"><path d="M2.006 0h38.74c1.244 0 2.253 1.009 2.253 2.253v35.493c0 1.244-1.009 2.253-2.253 2.253h-38.74c-1.108 0-2.006-.898-2.006-2.006v-35.987c0-1.108.898-2.006 2.006-2.006z" fill="#1BAFF9"/><path d="M22.407 0c-4.436 10.938-4.404 19.063-4.404 19.063 0 .516.396.938.919.938h4.484c.412 0 .729.313.713.734 0 0-.665 10.344 1.774 19.266h15.104c1.108 0 2.006-.898 2.006-2.006v-35.987c0-1.108-.898-2.006-2.006-2.006h-18.589z" fill="#fff"/><rect id="Rectangle-path" x=".071" y=".199" width="1.765" height="4.622" rx=".805" transform="translate(11 10)" fill="#fff" opacity=".1"/><rect id="Rectangle-path" x=".164" y=".199" width="1.765" height="4.622" rx=".805" transform="translate(30 10)" fill="#fff" opacity=".1"/><rect x=".071" y=".04" width="1.765" height="4.622" rx=".882" transform="translate(11 10)" fill="#030C1A"/><rect x=".164" y=".04" width="1.765" height="4.622" rx=".882" transform="translate(30 10)" fill="#030C1A"/><path d="M8.905 26.215s4.091 5.339 13.237 5.02c9.146-.319 11.953-5.02 11.953-5.02" opacity=".1" stroke="#fff" stroke-linecap="round" stroke-width="1.61"/><path d="M8.905 26.056s4.091 5.339 13.237 5.02c9.146-.319 11.953-5.02 11.953-5.02" stroke="#030C1A" stroke-linecap="round" stroke-width="1.61"/></g></svg>